<svg xmlns="http://www.w3.org/2000/svg" viewBox="0 0 32 32" id="restaurant">
  <path fill="#f37165" d="M19.93,7.52,16,11.4,12.09,7.52a2.68,2.68,0,0,1,3.66-3.91,3.45,3.45,0,0,1,.26.28,2.68,2.68,0,0,1,4.2,3.33,3.83,3.83,0,0,1-.28.29Z"></path>
  <path fill="#c8c8c8" d="M16.61 14.26v-.65A.6.6 0 0016 13a.59.59 0 00-.59.59v.65a4.16 4.16 0 00-3.58 4.13V19h8.35v-.59A4.17 4.17 0 0016.61 14.26zM4.67 29.12a.6.6 0 01-.6-.6V23.16a.6.6 0 01.6-.6.59.59 0 01.59.6v5.36A.59.59 0 014.67 29.12zM11.23 29.12a.6.6 0 01-.6-.6V23.16a.6.6 0 01.6-.6.59.59 0 01.59.6v5.36A.59.59 0 0111.23 29.12z"></path>
  <path fill="#c8c8c8" d="M4.67,23.75a.59.59,0,0,1-.59-.5L2.89,16.1a.59.59,0,1,1,1.16-.25v.05l1.19,7.16a.58.58,0,0,1-.49.68Z"></path>
  <path fill="#4d4d4d" d="M11.82,25H4.07V23.16a.6.6,0,0,1,.6-.6h6.56a.59.59,0,0,1,.59.6Z"></path>
  <path fill="#c8c8c8" d="M27.33 29.12a.59.59 0 00.59-.6V23.16a.59.59 0 00-.59-.6.6.6 0 00-.6.6v5.36A.6.6 0 0027.33 29.12zM20.77 29.12a.59.59 0 00.59-.6V23.16a.59.59 0 00-.59-.6.6.6 0 00-.6.6v5.36A.6.6 0 0020.77 29.12z"></path>
  <path fill="#c8c8c8" d="M27.33,23.75a.6.6,0,0,0,.59-.5l1.19-7.15a.6.6,0,0,0-.43-.73.59.59,0,0,0-.72.42.24.24,0,0,0,0,.08,0,0,0,0,1,0,0l-1.19,7.16a.6.6,0,0,0,.49.68Z"></path>
  <path fill="#4d4d4d" d="M20.17,25h7.75V23.16a.59.59,0,0,0-.59-.6H20.77a.6.6,0,0,0-.6.6Z"></path>
  <path fill="#4d4d4d" d="M22,19H10a.59.59,0,0,0-.59.6.58.58,0,0,0,.59.59H15.4v8.35a.6.6,0,0,0,.6.6h0a.59.59,0,0,0,.59-.6V20.17H22a.59.59,0,0,0,.6-.59A.6.6,0,0,0,22,19Z"></path>
</svg>
